:FULLY-SPECIFIED
:FORCE-ALL-JOINTS-BE-3DOF
:DEGREES
340
root 8.17173 16.0758 -20.4138 10.6264 23.6462 3.89377
lfemur -8.22302 15.1089 -9.56033
ltibia 40.1379 -0 0
lfoot 6.90757 28.2909 0.251724
ltoes -29.358 0 0
rfemur -48.0342 -14.6615 11.0448
rtibia 55.0965 -0 0
rfoot 2.34108 -17.47 -0.0401766
rtoes 0.553045 -0 0
lowerback -0.684898 -1.6786 -1.46781
upperback 1.82889 -2.20665 -0.0774509
thorax 2.31375 -1.12223 0.682525
lowerneck -5.69494 -8.6974 -0.372811
upperneck -2.0505 -11.5934 6.59597
head 0.749108 -5.73626 1.82841
lclavicle -4.48259e-014 7.95139e-015 0
lhumerus -48.406 -34.9973 109.782
lradius 57.2784 -0 0
lwrist 20.3632 0 0
lhand 6.28298 12.194 0.0146982
lfingers 7.12502 -0 0
lthumb 31.5881 39.4385 -0.00158931
rclavicle -4.48259e-014 7.95139e-015 0
rhumerus -22.8097 18.0806 -74.4464
rradius 84.551 -0 0
rwrist 1.57513 0 0
rhand -6.66284 -13.9089 0.000432961
rfingers 7.12502 -0 0
rthumb 19.1854 -42.8342 0.0305811
341
root 8.12715 16.1022 -20.2436 10.6779 22.0985 3.42059
lfemur -7.75903 14.0687 -9.08
ltibia 40.0429 -0 0
lfoot 9.08799 29.0205 0.139696
ltoes -29.1594 0 0
rfemur -48.2056 -15.3597 12.4865
rtibia 55.0668 -0 0
rfoot 1.66654 -17.0911 -0.0223176
rtoes -3.63853 0 0
lowerback -1.18621 -1.67166 -1.26453
upperback 1.67031 -2.19907 0.0561751
thorax 2.42869 -1.11787 0.692925
lowerneck -5.87595 -8.41095 -0.505588
upperneck -1.73488 -11.2232 6.53899
head 0.870584 -5.53991 1.82115
lclavicle -4.48259e-014 7.95139e-015 0
lhumerus -48.3424 -33.5932 109.453
lradius 57.022 -0 0
lwrist 21.0372 0 0
lhand 5.58062 12.0608 0.00816484
lfingers 7.12502 -0 0
lthumb 30.921 39.4537 -0.00088287
rclavicle -4.48259e-014 7.95139e-015 0
rhumerus -24.1432 17.8704 -76.1315
rradius 84.7734 -0 0
rwrist 1.70401 0 0
rhand -4.90257 -13.9074 0.000240382
rfingers 7.12502 -0 0
rthumb 20.8814 -42.7199 0.0169795
342
root 8.08257 16.1287 -20.0733 10.7424 20.5513 2.95088
lfemur -7.30604 13.0249 -8.61042
ltibia 39.9479 0 0
lfoot 11.2668 29.7453 0
ltoes -28.9607 0 0
rfemur -48.3957 -16.0535 13.9352
rtibia 55.0372 0 0
rfoot 0.992131 -16.7125 0
rtoes -7.8301 0 0
lowerback -1.6875 -1.66294 -1.06132
upperback 1.51176 -2.19113 0.189779
thorax 2.54362 -1.11354 0.703334
lowerneck -6.05749 -8.12491 -0.639183
upperneck -1.42004 -10.8528 6.48417
head 0.991996 -5.34355 1.81432
lclavicle -4.48259e-014 7.95139e-015 0
lhumerus -48.2894 -32.1888 109.13
lradius 56.7657 0 0
lwrist 21.7113 0 0
lhand 4.87827 11.9278 0
lfingers 7.12502 0 0
lthumb 30.2539 39.4688 0
rclavicle -4.48259e-014 7.95139e-015 0
rhumerus -25.468 17.623 -77.8089
rradius 84.9958 0 0
rwrist 1.83289 0 0
rhand -3.14231 -13.9058 0
rfingers 7.12502 0 0
rthumb 22.5774 -762.606 0
343
root 8.00506 16.1528 -19.9108 10.3324 19.0865 2.47386
lfemur -7.42938 12.7447 -7.99962
ltibia 41.7113 -0 0
lfoot 11.3231 27.6711 -0.0103122
ltoes -24.3699 0 0
rfemur -47.4188 -16.2481 15.0376
rtibia 54.4332 -0 0
rfoot -0.297411 -15.3672 -0.152751
rtoes -6.86054 0 0
lowerback -1.46917 -1.56908 -0.980299
upperback 1.55518 -2.07158 0.297303
thorax 2.46383 -1.05409 0.775185
lowerneck -6.14847 -7.88355 -0.620669
upperneck -1.16481 -10.5443 6.31388
head 1.0689 -5.18477 1.76432
lclavicle 7.60351e-015 1.91827e-014 0
lhumerus -48.0809 -31.621 108.809
lradius 56.6835 -0 0
lwrist 21.3103 0 0
lhand 4.23171 11.7278 0.0112955
lfingers 7.12502 -0 0
lthumb 29.6352 39.3642 0.00565235
rclavicle 7.60351e-015 1.91827e-014 0
rhumerus -26.6804 16.9033 -79.1159
rradius 84.456 -0 0
rwrist 2.21374 0 0
rhand -7.03126 -16.8734 1.07686
rfingers 7.12502 -0 0
rthumb 18.8294 -45.6106 1.04809
344
root 7.92756 16.1769 -19.7482 9.93872 17.6187 2.01188
lfemur -7.55563 12.4658 -7.38887
ltibia 43.4748 -0 0
lfoot 11.3798 25.597 -0.0185782
ltoes -19.7791 0 0
rfemur -46.4449 -16.4606 16.1375
rtibia 53.8292 -0 0
rfoot -1.5902 -14.0188 -0.275147
rtoes -5.89097 0 0
lowerback -1.25072 -1.47553 -0.898924
upperback 1.59883 -1.95211 0.404911
thorax 2.38412 -0.99455 0.846952
lowerneck -6.23932 -7.64216 -0.602552
upperneck -0.910773 -10.2351 6.14516
head 1.14565 -5.02593 1.71455
lclavicle 7.60351e-015 1.91827e-014 0
lhumerus -47.8774 -31.0521 108.492
lradius 56.6013 -0 0
lwrist 20.9093 0 0
lhand 3.58511 11.5278 0.0203338
lfingers 7.12502 -0 0
lthumb 29.0166 39.2596 0.0101751
rclavicle 7.60351e-015 1.91827e-014 0
rhumerus -27.8708 16.1575 -80.4019
rradius 83.9163 -0 0
rwrist 2.5946 0 0
rhand -10.9725 -19.9084 1.94856
rfingers 7.12502 -0 0
rthumb 15.03 -48.6785 1.89613
345
root 7.85005 16.2009 -19.5857 9.5604 16.1479 1.56398
lfemur -7.68479 12.1883 -6.77814
ltibia 45.2382 -0 0
lfoot 11.4368 23.5228 -0.0247873
ltoes -15.1882 0 0
rfemur -45.4743 -16.6911 17.2348
rtibia 53.2251 -0 0
rfoot -2.88551 -12.6679 -0.367059
rtoes -4.92141 0 0
lowerback -1.03215 -1.38228 -0.817197
upperback 1.64269 -1.83273 0.512601
thorax 2.30448 -0.934905 0.918635
lowerneck -6.33005 -7.40074 -0.584832
upperneck -0.657901 -9.92511 5.97799
head 1.22224 -4.86702 1.66501
lclavicle 7.60351e-015 1.91827e-014 0
lhumerus -47.6787 -30.4824 108.18
lradius 56.5191 -0 0
lwrist 20.5083 0 0
lhand 2.93849 11.3276 0.0271136
lfingers 7.12502 -0 0
lthumb 28.3979 39.1549 0.0135675
rclavicle 7.60351e-015 1.91827e-014 0
rhumerus -29.0391 15.3866 -81.6666
rradius 83.3765 -0 0
rwrist 2.97545 0 0
rhand -14.9564 -22.9979 2.60846
rfingers 7.12502 -0 0
rthumb 11.1888 -51.7975 2.5379
346
root 7.77254 16.225 -19.4232 9.19664 14.6744 1.1293
lfemur -7.81683 11.9121 -6.1674
ltibia 47.0016 -0 0
lfoot 11.4939 21.4486 -0.0289311
ltoes -10.5974 0 0
rfemur -44.5073 -16.9393 18.3292
rtibia 52.6211 -0 0
rfoot -4.18265 -11.3154 -0.428389
rtoes -3.95185 0 0
lowerback -0.81345 -1.28936 -0.735117
upperback 1.68678 -1.71342 0.620376
thorax 2.22492 -0.87516 0.990234
lowerneck -6.42065 -7.1593 -0.567506
upperneck -0.406184 -9.61443 5.81237
head 1.29867 -4.70805 1.61568
lclavicle 7.60351e-015 1.91827e-014 0
lhumerus -47.4848 -29.9117 107.871
lradius 56.4369 -0 0
lwrist 20.1073 0 0
lhand 2.29184 11.1274 0.031634
lfingers 7.12502 -0 0
lthumb 27.7792 39.0502 0.0158294
rclavicle 7.60351e-015 1.91827e-014 0
rhumerus -30.1853 14.5912 -82.9103
rradius 82.8368 -0 0
rwrist 3.35631 0 0
rhand -18.972 -26.1272 3.05138
rfingers 7.12502 -0 0
rthumb 7.31665 -54.9538 2.96854
347
root 7.69504 16.2491 -19.2606 8.84669 13.1982 0.707006
lfemur -7.95173 11.6373 -5.55663
ltibia 48.7651 -0 0
lfoot 11.5512 19.3744 -0.0310044
ltoes -6.00661 0 0
rfemur -43.5442 -17.2051 19.4206
rtibia 52.0171 -0 0
rfoot -5.48089 -9.96172 -0.459071
rtoes -2.98228 0 0
lowerback -0.594626 -1.19674 -0.652687
upperback 1.73108 -1.5942 0.728237
thorax 2.14544 -0.815317 1.06175
lowerneck -6.51112 -6.91783 -0.550574
upperneck -0.155605 -9.30303 5.64828
head 1.37495 -4.54901 1.56659
lclavicle 7.60351e-015 1.91827e-014 0
lhumerus -47.2955 -29.3401 107.566
lradius 56.3547 -0 0
lwrist 19.7063 0 0
lhand 1.64519 10.9271 0.0338944
lfingers 7.12502 -0 0
lthumb 27.1605 38.9454 0.0169605
rclavicle 7.60351e-015 1.91827e-014 0
rhumerus -31.3093 13.7722 -84.1329
rradius 82.297 -0 0
rwrist 3.73716 0 0
rhand -23.0071 -29.2809 3.27375
rfingers 7.12502 -0 0
rthumb 3.42546 -58.133 3.18471
